<?xml version="1.0" standalone="no"?>
<!DOCTYPE svg PUBLIC "-//W3C//DTD SVG 20010904//EN"
 "http://www.w3.org/TR/2001/REC-SVG-20010904/DTD/svg10.dtd">
<svg version="1.0" xmlns="http://www.w3.org/2000/svg"
 width="800.000000pt" height="800.000000pt" viewBox="0 0 800.000000 800.000000"
 preserveAspectRatio="xMidYMid meet">
<metadata>
Created by potrace 1.11, written by Peter Selinger 2001-2013
</metadata>
<g transform="translate(0.000000,800.000000) scale(0.100000,-0.100000)"
fill="#000000" stroke="none">
<path d="M4443 7402 c-12 -9 -35 -27 -51 -40 -88 -67 -190 -190 -251 -303
l-39 -72 -12 41 c-12 48 -25 54 -28 16 -4 -47 -15 -47 -32 -2 -32 84 -99 149
-178 173 -17 5 -10 -6 27 -43 27 -27 60 -71 74 -98 27 -53 63 -161 56 -168 -2
-2 -85 -6 -184 -10 -197 -7 -250 -11 -340 -26 -33 -5 -78 -12 -100 -15 -22 -4
-87 -17 -144 -31 -495 -117 -873 -388 -1071 -769 -108 -206 -161 -440 -155
-685 3 -157 34 -308 90 -444 7 -17 6 -17 -16 -6 -28 15 -221 152 -264 189 -17
14 -51 42 -75 61 -85 68 -281 261 -361 355 -19 22 -40 46 -47 54 -34 36 -169
221 -235 323 -88 135 -134 182 -205 208 -98 37 -195 4 -246 -82 -26 -44 -58
-159 -75 -263 -10 -62 -8 -309 3 -357 3 -16 8 -38 10 -50 5 -31 25 -104 43
-158 60 -183 207 -433 376 -642 l86 -107 -20 -58 c-108 -312 158 -693 607
-872 223 -88 510 -120 704 -77 14 3 39 9 57 12 l32 6 -1 -84 c-2 -95 8 -194
23 -253 32 -124 99 -269 160 -346 l29 -37 -46 -38 c-97 -80 -122 -141 -90
-218 13 -32 7 -56 -15 -56 -18 0 -358 -206 -533 -323 -71 -48 -131 -86 -132
-84 -3 3 -10 41 -19 117 -14 103 -60 217 -114 279 -23 26 -81 71 -92 71 -4 0
8 -26 27 -57 19 -32 44 -87 54 -123 19 -62 23 -82 36 -160 3 -19 9 -54 14 -78
l7 -42 -39 0 c-34 0 -108 -22 -108 -33 0 -2 31 -16 68 -31 71 -29 120 -65 142
-105 l13 -24 12 23 c11 20 11 45 2 93 -1 4 45 33 103 63 186 99 424 237 556
324 l71 47 37 -33 c40 -36 89 -50 133 -40 32 8 127 64 191 112 l43 33 87 -44
c210 -104 428 -156 683 -160 159 -2 300 16 463 60 32 9 92 30 133 46 40 16 77
29 82 29 5 0 37 -35 72 -77 35 -43 127 -143 205 -222 l141 -143 -141 -120
c-189 -161 -413 -368 -601 -556 -2 -2 -21 12 -41 32 -37 37 -128 90 -144 84
-5 -2 14 -32 41 -68 28 -36 62 -83 75 -105 l23 -40 -20 -90 c-32 -150 -74
-265 -155 -429 -41 -82 -42 -87 -19 -72 121 80 218 257 234 429 l7 72 29 -82
c17 -46 33 -83 37 -83 13 0 21 72 15 136 -4 35 -15 82 -27 106 -11 23 -20 47
-19 52 0 6 51 50 112 98 62 48 127 100 146 115 43 35 223 184 276 228 22 18
81 67 130 108 106 88 170 154 179 183 7 23 -2 33 -99 114 -58 48 -375 361
-375 369 1 3 33 25 73 48 99 58 223 159 308 252 l70 77 55 -6 c69 -8 403 -5
469 4 28 4 66 8 85 11 32 4 64 8 143 21 384 61 816 285 993 515 90 117 130
244 110 349 l-11 54 100 101 c246 246 407 541 476 870 20 94 18 337 -4 415
-49 179 -156 323 -261 351 -94 25 -152 -9 -239 -141 -149 -226 -324 -422 -537
-599 -84 -70 -311 -231 -326 -231 -4 0 -15 -6 -23 -14 -35 -31 -390 -206 -418
-206 -2 0 12 30 33 68 167 297 282 630 328 952 18 127 21 172 21 315 0 199
-13 291 -62 435 -171 503 -674 821 -1320 836 -138 3 -183 -1 -183 -16 0 -3 48
-12 108 -18 131 -15 141 -17 269 -47 282 -67 523 -194 698 -368 103 -102 168
-196 219 -315 37 -85 73 -217 81 -297 7 -59 7 -259 1 -295 -3 -14 -7 -52 -11
-85 -4 -33 -11 -82 -16 -110 -5 -27 -12 -66 -15 -85 -22 -137 -105 -400 -184
-585 -221 -518 -599 -898 -1032 -1039 -168 -55 -271 -71 -458 -70 -103 0 -200
5 -235 13 -33 7 -69 14 -80 16 -58 9 -248 69 -330 103 -98 41 -288 143 -380
204 -500 334 -814 796 -881 1298 -8 56 -4 248 5 295 6 28 13 68 16 89 35 244
174 523 352 704 205 208 531 379 888 468 17 4 35 9 40 10 39 12 361 75 414 81
118 13 136 11 139 -14 2 -17 -2 -23 -15 -23 -10 0 -36 -9 -58 -20 l-40 -20 33
6 c55 10 205 6 237 -5 l30 -11 -23 19 c-12 11 -40 22 -62 26 -22 4 -40 11 -40
16 0 16 80 169 132 253 44 70 164 233 193 261 60 58 80 98 28 57z m-3548
-1474 c11 -13 53 -69 93 -125 102 -144 175 -233 283 -344 83 -86 125 -125 235
-219 16 -14 70 -55 119 -90 50 -36 92 -67 95 -70 15 -16 194 -118 296 -170
l119 -59 44 -83 c190 -362 550 -731 951 -977 47 -28 92 -56 100 -61 43 -27
284 -141 345 -163 228 -85 414 -120 630 -118 143 2 143 2 267 25 362 68 713
293 978 626 42 52 86 111 99 130 21 33 32 38 125 62 499 128 991 465 1318 905
l107 143 30 -26 c76 -64 122 -191 126 -354 11 -348 -160 -737 -460 -1049 -271
-281 -617 -473 -1075 -596 l-95 -25 75 6 c376 30 798 192 1064 409 l59 47 -5
-51 c-25 -263 -457 -541 -1093 -705 -78 -20 -150 -38 -162 -40 -11 -3 -65 -14
-119 -26 -104 -23 -106 -23 -169 -35 -22 -4 -51 -9 -65 -12 -13 -2 -55 -11
-93 -19 -100 -21 -100 -21 -56 45 57 85 125 226 158 328 35 106 73 275 60 267
-5 -3 -9 -14 -9 -24 0 -10 -4 -21 -9 -24 -5 -3 -12 -18 -16 -33 -12 -49 -122
-262 -179 -346 -55 -81 -72 -102 -158 -195 -226 -246 -565 -410 -928 -449 -81
-9 -286 -9 -363 0 -166 19 -355 76 -500 148 -43 22 -83 36 -90 33 -7 -4 -30
-22 -52 -40 -92 -74 -216 -152 -235 -147 -21 6 -59 52 -78 97 -12 27 -11 30
35 73 25 24 84 71 129 104 l82 60 -15 37 c-25 61 -31 65 -68 42 l-33 -20 -55
72 c-67 87 -136 231 -168 348 -19 72 -23 110 -23 250 -1 91 2 187 6 214 4 28
4 45 -1 40 -12 -12 -48 -137 -56 -194 -4 -25 -8 -52 -10 -60 -1 -10 -13 -15
-31 -14 -28 1 -140 18 -194 29 -14 3 -34 7 -45 9 -128 25 -330 94 -474 162
-294 139 -514 344 -580 541 -20 59 -33 156 -24 179 2 7 43 -26 91 -73 191
-187 413 -344 656 -463 164 -80 248 -113 169 -67 -68 40 -192 125 -278 190
-497 374 -912 945 -1011 1389 -33 148 -24 390 21 537 l16 53 37 -5 c20 -4 45
-17 57 -29z"/>
<path d="M3428 5893 c-82 -16 -130 -37 -203 -89 -64 -45 -77 -59 -129 -132
-100 -142 -147 -300 -141 -480 2 -53 6 -110 10 -127 53 -264 222 -475 455
-569 35 -14 65 -24 67 -22 2 1 -16 18 -39 37 -107 85 -211 218 -263 335 -116
261 -81 574 87 787 17 20 51 52 76 69 175 121 401 96 558 -60 30 -30 54 -51
54 -47 0 3 -11 30 -25 58 -45 95 -164 197 -267 228 -65 20 -175 25 -240 12z"/>
<path d="M4380 5823 c-139 -21 -307 -90 -385 -158 l-40 -34 55 20 c166 62 401
74 565 30 170 -47 321 -150 374 -257 32 -63 38 -159 16 -244 -40 -154 -182
-380 -383 -607 -35 -40 -59 -73 -54 -73 12 0 180 110 224 147 18 15 70 65 116
111 261 265 344 533 232 752 -30 58 -123 154 -193 198 -78 49 -178 89 -267
107 -40 8 -223 14 -260 8z"/>
<path d="M3675 5107 c-17 -14 -28 -36 -32 -63 -9 -73 60 -128 132 -104 68 22
85 125 28 170 -35 28 -94 27 -128 -3z"/>
<path d="M4372 5093 c-54 -26 -56 -100 -3 -127 34 -18 70 -11 93 18 51 62 -17
144 -90 109z"/>
<path d="M4033 4565 c-50 -15 -183 -90 -271 -152 l-64 -45 -151 -3 c-269 -6
-338 -9 -325 -16 7 -3 36 -9 63 -13 28 -4 63 -9 78 -11 159 -23 288 -33 440
-34 l88 -1 52 -55 c64 -68 86 -70 155 -15 28 21 56 48 64 58 10 16 31 21 106
26 51 4 101 9 111 11 10 2 42 6 72 10 65 8 194 30 269 46 133 28 96 30 -350
15 -96 -4 -267 -8 -380 -11 l-205 -4 52 19 c29 10 87 35 130 55 43 20 90 39
104 42 27 5 209 -52 220 -70 8 -11 41 -6 45 8 7 23 -170 134 -236 148 -14 3
-44 -1 -67 -8z m7 -285 c-19 -13 -30 -13 -30 0 0 6 10 10 23 10 18 0 19 -2 7
-10z"/>
</g>
</svg>
